<?xml version="1.0" encoding="UTF-8"?>
<svg xmlns="http://www.w3.org/2000/svg" xmlns:cc="http://creativecommons.org/ns#" xmlns:dc="http://purl.org/dc/elements/1.1/" xmlns:rdf="http://www.w3.org/1999/02/22-rdf-syntax-ns#" xmlns:xlink="http://www.w3.org/1999/xlink" width="501.6" height="556.46" version="1.1" viewBox="0 0 132.71615 147.23107">
    <defs>
        <linearGradient id="linearGradient4884" x1="112.38" x2="111.92" y1="129.3" y2="97.871" gradientUnits="userSpaceOnUse" xlink:href="#linearGradient4812"/>
        <linearGradient id="linearGradient4812">
            <stop offset="0" stop-color="#965bab"/>
            <stop offset="1" stop-color="#c569c8"/>
        </linearGradient>
        <linearGradient id="linearGradient4816" x1="112.75" x2="112.02" y1="112.74" y2="92.537" gradientUnits="userSpaceOnUse" xlink:href="#linearGradient4812"/>
    </defs>
    <metadata>
        <rdf:RDF>
            <cc:Work rdf:about="">
                <dc:format>
                    image/svg+xml
                </dc:format>
                <dc:type rdf:resource="http://purl.org/dc/dcmitype/StillImage"/>
                <dc:title/>
            </cc:Work>
        </rdf:RDF>
    </metadata>
    <g transform="translate(-30.404 -30.617)">
        <g stroke-width=".26458" transform="translate(-17.981 -58.532)">
            <path fill="#b7dca2" d="m87.793 191.64c-3.0724-2.0029-5.5882-4.9785-7.115-8.3113-0.80295-3.4376-0.21653-7.2038 1.597-10.242 2.2792-0.58967 2.9542 4.1256 4.2908 5.7258 1.3118 2.5764 2.5616 5.3674 2.1152 8.3259 0.41095 1.2118 3.1152 5.717 0.0097 4.8732l-0.43263-0.16027zm49.631-12.868c-1.876-3.2311-4.1442-6.6342-4.166-10.499 0.88208-0.29098 6.3323 1.5405 4.6021-1.1806-1.6185-1.0068-3.8932-1.646-4.1076-3.8115 0.95145-2.6078 1.7003-5.2832 2.1937-8.0145 1.4547-1.5749 2.8432 2.7935 3.9044 3.8292 2.8928 4.289 2.7493 9.8125 1.5801 14.643-0.78765 1.4801-1.661 6.4328-4.0066 5.034zm-44.718-17.462c-3.3742-4.1536-3.4032-10.45-0.73358-14.982 1.1357-1.4891 2.6091-5.9438 4.3881-5.1419 1.4142 3.609 2.4852 7.3421 3.8962 10.953-1.9797 2.6555-3.5925 5.5464-5.1888 8.4385-0.60713 0.92961-1.43 2.1978-2.3619 0.7331zm6.9328-7.5744c0.8253-1.0097 1.3104-0.78378 0 0z"/>
            <path fill="url(#linearGradient4884)" d="m111.71 136.08c-0.50682-0.61068-2.5349-18.362-2.9546-25.862-0.30065-5.3717-0.32612-15.358-0.0418-16.404 0.30583-1.1258 1.6817-1.6258 4.2227-1.5344 2.9915 0.1075 3.0979 0.24877 3.3501 4.4461 0.27115 4.513-0.51264 20.694-1.5966 32.961-0.41932 4.7454-0.68805 6.1517-1.2429 6.5038-0.50675 0.32164-1.4267 0.26294-1.7369-0.11084zm21.678-3.336c-0.2711-0.27111-0.57656-0.9388-0.6788-1.4838-0.17369-0.92584 0.0524-1.4098 3.4463-7.3784 3.9511-6.9484 7.4937-12.735 9.1349-14.92 0.85475-1.1383 1.1871-1.3891 1.8414-1.3891 1.2192 0 2.2692 0.67758 3.0107 1.943 1.3318 2.2726 1.1925 2.598-4.4967 10.508-3.1502 4.3798-3.5924 4.9681-6.2235 8.2796-1.3388 1.685-4.8482 4.9341-5.3294 4.9341-0.11655 0-0.43372-0.22182-0.70483-0.49292zm-9.742-1.8309c-0.17215-0.10948-0.72118-0.87688-1.22-1.7054l-0.90705-1.5063 1.161-3.1997c1.3872-3.823 1.5694-4.5826 3.4258-14.284 1.8353-9.591 2.9147-14.092 3.5833-14.942 0.72959-0.92751 1.7483-0.86301 4.0797 0.25833 2.9165 1.4028 3.6372 2.584 2.9354 4.8114-1.9227 6.103-7.3536 20.992-9.1017 24.953-2.6142 5.9231-2.879 6.2988-3.9564 5.6137zm-35.347-1.3048c-0.54987-0.37751-1.9698-2.0075-3.1555-3.6221-1.9514-2.6574-7.881-10.135-10.058-12.684-0.72081-0.84393-0.86842-1.2336-0.86842-2.2923 0-1.5772 1.1145-3.3329 2.5696-4.0477 0.87984-0.43225 1.0447-0.44008 1.7362-0.0825 0.93856 0.48535 2.565 2.5922 3.9048 5.058 0.55344 1.0186 2.106 3.4666 3.4501 5.4398 2.7631 4.0564 5.4051 8.6104 5.4051 9.3165 0 0.5739-1.5168 3.6386-1.7897 3.6164-0.10704-9e-3 -0.64452-0.32478-1.1944-0.70228zm11.619-1.1399c-1.4157-1.6824-10.817-27.27-11.204-30.491-0.11516-0.96033-0.04636-1.3767 0.28866-1.7469 0.66001-0.7293 4.5417-2.4677 5.8358-2.6136 1.5272-0.17214 2.0011 0.47861 2.0011 2.7479 0 1.6809 2.2102 13.434 3.1997 17.015 0.30372 1.0991 1.1458 3.9629 1.8713 6.364 1.0999 3.6403 1.2965 4.6007 1.1832 5.7804-0.14838 1.5456-0.97172 3.0141-1.9363 3.4536-0.49489 0.22548-0.68872 0.14593-1.2396-0.50876z"/>
            <path fill="#96cd76" d="m116.66 199.95c-0.0348-0.0288-1.1123-0.12434-2.3946-0.21235-2.6305-0.18055-4.4035-0.82518-5.0708-1.8437-0.60683-0.92613-1.4537-5.2388-1.4578-7.4243-2e-3 -1.0019 0.13525-2.5745 0.30481-3.4948l0.3083-1.6732 0.87181 0.76546c1.3688 1.2018 3.1154 2.1277 5.5424 2.9379 3.0987 1.0345 4.7806 1.3049 6.5897 1.0594l1.536-0.20843-0.16354 2.5405c-0.24414 3.7926-0.88845 5.4497-2.6168 6.7299-0.57472 0.42572-3.179 1.0475-3.4494 0.82351zm1.5243-13.89c-3.6555-0.29237-6.7908-1.2414-8.302-2.513-1.0062-0.84662-0.9854-1.113 0.29068-3.7302 0.58159-1.1928 1.2622-2.0622 2.3018-2.9406 0.81186-0.68587 2.1025-1.8326 2.8681-2.5482 0.7656-0.71562 1.4392-1.2528 1.4969-1.1938 0.0577 0.059 0.94159 1.6551 1.9642 3.5469 2.1788 4.0307 3.4728 7.1354 3.5549 8.5296 0.0551 0.93636 0.0115 0.99738-0.73514 1.0282-0.43656 0.018-1.9844-0.0625-3.4396-0.1789zm-30.913-9.3485c-3.0425-3.1306-4.463-8.8423-3.1001-12.466 1.9496-5.1831 3.8157-9.3388 4.1382-9.215 0.37463 0.14376 1.5343 2.9686 2.464 6.0018 0.30575 0.99759 0.55592 1.8502 0.55592 1.8946 0 0.17617-2.2999 1.1506-3.1058 1.3159-1.0381 0.2129-1.2884 0.54839-0.82548 1.1062 0.28387 0.34205 0.74599 0.39397 2.5209 0.28324l2.1733-0.13559 0.28002 1.3057c0.50663 2.3624 0.34395 3.8666-0.76378 7.0623-0.5728 1.6525-1.2456 3.2301-1.495 3.5057-0.73946 0.81709-1.6016 0.61713-2.842-0.6592zm43.677-18.728c-1.8233-2.8264-2.8875-3.7593-4.0412-3.5428-1.0584 0.19855-1.4226-0.20253-1.8311-2.0161-0.25351-1.1256-0.23573-1.4996 0.10608-2.2313 0.22586-0.48343 0.48753-0.88284 0.5815-0.88758 0.26915-0.0136 1.7576 2.4302 1.9466 3.1959 0.23035 0.93344 1.5833 2.5325 2.5778 3.0468 0.4564 0.23601 1.4925 0.42588 2.3691 0.43414l1.5579 0.0147-0.16283 0.81712c-0.31215 1.5664-0.6775 2.476-1.1756 2.9268-0.48308 0.43718-0.55398 0.37255-1.9282-1.7577zm2.1851-6.91c-0.62302-0.31295-1.1378-0.9998-3.0427-4.0599-1.1087-1.781-2.3316-2.5603-3.7703-2.4028-0.6479 0.071-1.1245 0.0122-1.1245-0.1385 0-0.58663 1.4377-5.7588 1.6007-5.7588 0.30103 0 3.1672 3.7144 4.9 6.35 2.0754 3.1569 3.2291 6.3663 2.281 6.3461-0.10055-2e-3 -0.48048-0.15342-0.84428-0.33616zm-11.763-3.191c-0.47133-0.34464-0.46748-0.42945 0.11734-2.5797 0.33258-1.2228 0.62732-2.7184 0.65498-3.3234 0.0277-0.60506 0.25712-1.4158 0.50991-1.8016 0.5908-0.90167 0.4648-1.7851-0.27037-1.8956-0.39538-0.0594-0.92047 0.29511-1.7491 1.181-1.0328 1.1042-1.2092 1.4668-1.38 2.838-0.10773 0.86463-0.31351 1.7924-0.45729 2.0618-0.23616 0.44242-0.32617 0.39441-0.932-0.49715-0.65885-0.96958-0.66267-1.0035-0.2181-1.9357 0.52167-1.094 1.6122-2.5527 3.2367-4.3293 1.2054-1.3184 1.4892-2.3264 0.65494-2.3264-0.62036 0-2.5707 1.2928-4.3112 2.8576l-1.3622 1.2247 0.11624-1.6069c0.1043-1.442 0.33031-1.9638 2.2023-5.0839 1.1473-1.9123 2.1669-3.477 2.2658-3.477 0.53412 0 3.3762 5.3636 4.0572 7.6568 0.2344 0.7893 0.42617 2.1088 0.42617 2.9322 0 1.9843-0.88104 5.3496-1.6796 6.4157-0.35213 0.47008-0.72161 1.1226-0.82107 1.45-0.20938 0.6893-0.38924 0.72982-1.0606 0.23894z"/>
            <path fill="url(#linearGradient4816)" d="m136.57 136.66c-1.07-0.80963-0.67538-1.7442 1.9139-4.5327 2.8706-3.0915 8.0488-9.5262 9.7632-12.132 1.4684-2.2321 2.4234-3.3073 2.9373-3.3073 1.2998 0 3.4882 2.4052 3.4865 3.8317-1e-3 1.099-0.52393 1.8642-3.9785 5.8256-4.3639 5.0042-6.6882 7.2335-9.4655 9.0784-2.5931 1.7226-3.6456 2.002-4.657 1.2367zm-51.63-1.219c-2.6726-1.6866-11.9-10.455-13.029-12.381-1.1963-2.0414-0.83017-4.3555 0.86499-5.4662 1.5476-1.014 3.3468 0.32612 7.0965 5.286 2.6438 3.497 6.5766 8.1127 7.8354 9.1958 0.44984 0.38705 0.81788 0.95642 0.81788 1.2653 0 1.3328-1.1148 2.9258-2.0475 2.9258-0.1266 0-0.81904-0.3716-1.5388-0.82578zm22.244-2.8122c-4.1093-9.7327-6.4802-19.412-7.664-31.287-0.57158-5.734 0.56999-8.1029 1.3922-8.9251 0.65282-0.65281 0.78015-0.6758 3.1663-0.57143 3.8941 0.17031 2.5812 1.6482 2.7996 9.9667 0.47168 17.963 0.83114 21.767 2.866 30.332 0.77904 3.2791 0.79241 3.432 0.32978 3.7703-1.0459 0.7648-1.3034 0.47203-2.8899-3.2854zm-11.294 1.3229c-0.21523-0.25466-0.78125-1.4155-1.2578-2.5797-1.1522-2.8147-9.321-17.292-13.735-24.342-1.1537-1.8427-1.2573-2.6588-0.51954-4.0939 0.72812-1.4164 2.423-2.4018 4.2531-2.4726 2.1134-0.0818 2.8039 1.0192 5.6121 8.9477 2.2186 6.2639 3.341 9.2091 5.4992 14.43 2.4623 5.956 3.1793 8.2224 2.864 9.0518-0.28689 0.75458-1.2422 1.5216-1.8952 1.5216-0.23611 0-0.60539-0.20836-0.82063-0.46302zm18.937-1.0583c0.94276-3.0621 1.6834-7.3802 2.7115-15.809 0.54362-4.4566 0.70041-7.1272 0.79225-13.494 0.063-4.3656-0.20638-10.435-0.14124-10.744 0.20508-0.9729 2.2232-0.16729 4.4986 0.18646 4.3302 0.67321 4.1407 2.3968 2.9722 12.013-0.72514 5.9674-2.6694 14.192-4.3785 18.521-1.2257 3.1048-4.1972 8.706-4.9203 9.2748-0.84322 0.66328-1.732 0.69326-1.5345 0.0518zm15.149-3.8394-1.2095-1.4157 0.40841-1.564c0.22463-0.8602 1.0072-2.9876 1.7391-4.7275s2.316-5.911 3.5204-9.2691c3.3186-9.253 4.071-10.736 5.4477-10.736 1.0939 0 2.5094 0.63997 3.8557 1.7431 0.99446 0.81488 1.1449 1.0739 1.1449 1.9712 0 1.5379-0.80653 3.1272-5.9524 11.729-2.578 4.3094-5.2574 9.1121-5.9543 10.673-0.69689 1.5606-1.3848 2.8766-1.5288 2.9246-0.14393 0.048-0.80596-0.54986-1.4712-1.3285z"/>
            <g fill="#5bb327">
                <path d="m106.13 230.79c-1.908-0.32879-3.2848-1.3133-7.3581-5.2615-4.5999-4.4587-6.0947-5.7343-10.89-9.2929-6.4013-4.7507-10.608-8.6604-16.591-15.418-8.4259-9.518-11.006-16.137-10.249-26.296 0.4864-6.5273 1.3758-9.6024 4.736-16.375 2.4767-4.9922 4.2289-7.9241 8.0431-13.458 2.4035-3.4875 3.3368-4.4045 3.3368-3.2785 0 0.33654-0.15994 0.84674-0.35543 1.1338-0.19548 0.28704-1.1596 2.533-2.1425 4.9909-0.98292 2.458-2.7195 6.6455-3.859 9.3056-3.4326 8.0132-4.0428 9.8092-3.8432 11.313 0.35808 2.6994 1.3433 4.1275 2.5773 3.7358 0.46761-0.14842 0.52727-0.0967 0.36428 0.31607-0.19522 0.49431-0.68675 2.3015-1.8886 6.9436-1.2092 4.6707-0.68735 6.891 2.3144 9.8465 2.1428 2.1098 3.5355 2.7394 6.0687 2.7433 1.1077 2e-3 2.1793-0.12954 2.3812-0.29172 0.20196-0.16217 0.63143-0.37583 0.95438-0.47478l0.58718-0.17993-0.55166 1.2471c-0.65108 1.4719-0.67367 2.541-0.10543 4.9911 0.57374 2.474 1.6958 4.7114 3.3883 6.7568 2.917 3.5252 6.7235 6.2899 10.902 7.9184 3.6404 1.4187 4.4886 1.5527 5.4291 0.85738l0.74622-0.5517-0.42392 1.0792c-0.39635 1.009-0.39269 1.1331 0.0564 1.9072 0.33224 0.57276 0.54952 1.7396 0.70488 3.7855 0.39869 5.2502 2.1994 9.2274 4.5874 10.132 0.86397 0.32739 5.1807 0.41927 6.3051 0.1342 0.68922-0.17472 0.72761-0.1361 0.72761 0.73201v0.91646l-1.7859 0.16867c-2.034 0.19211-2.6787 0.18032-4.1672-0.0762z"/>
                <path d="m118.01 230.86-1.3891-0.11357v-0.9409c0-0.89476 0.0357-0.93185 0.72761-0.75644 0.40018 0.10145 1.8415 0.17842 3.203 0.17104 4.1397-0.0224 5.2926-0.93126 6.8452-5.3956 0.43516-1.2513 0.75397-2.9618 0.92354-4.9552 0.14616-1.7181 0.42052-3.2995 0.62983-3.6302 0.48865-0.77213 0.47078-1.9317-0.041-2.6624-0.51127-0.72993-0.27777-0.75268 0.60426-0.0589 0.88663 0.69742 1.2013 0.67459 3.9537-0.28696 4.459-1.5578 7.7798-3.7018 11.089-7.1597 2.8981-3.0283 4.1534-5.4675 4.8842-9.4914 0.28163-1.5506 0.25856-1.8532-0.24042-3.1545-0.30356-0.79169-0.50629-1.4851-0.4505-1.5409 0.0558-0.0558 0.49944 0.11323 0.98591 0.37559 1.279 0.68977 4.1938 0.63174 5.8627-0.11671 1.5964-0.71597 4.3826-3.4848 5.181-5.1487 0.90117-1.8781 0.78719-3.7827-0.52721-8.8094-1.5119-5.7822-1.4702-5.536-0.90257-5.3182 1.3436 0.51559 2.721-2.2924 2.4379-4.9699-0.088-0.83218-0.96625-3.3046-2.3097-6.5021-1.1922-2.8377-3.2345-7.7704-4.5383-10.962-1.3038-3.1913-2.5268-6.1083-2.7178-6.4823s-0.43429-1.0966-0.54079-1.606l-0.19363-0.92604 0.84742 0.79375c1.0188 0.95429 5.9424 8.2185 8.0684 11.904 2.1437 3.7162 4.8239 9.3848 5.6949 12.044 1.4483 4.4225 2.1783 11.673 1.6113 16.004-1.1457 8.7503-5.2984 15.262-17.134 26.867-3.0169 2.958-5.6816 5.2315-9.5278 8.1288-4.8853 3.6801-9.0372 7.2169-11.065 9.4255-1.6681 1.8171-4.5429 4.2318-5.5972 4.7013-1.1562 0.51493-3.9806 0.76879-6.3752 0.57302z"/>
                <path d="m103.26 198.31c-2.5276-0.34836-5.882-1.2125-7.1909-1.8526-2.8526-1.3949-5.3471-4.679-5.7882-7.6207-0.16633-1.1091-0.0988-1.2762 1.3567-3.3594 2.1311-3.05 5.6702-7.6162 5.903-7.6162 0.26583 0 1.8829 2.3233 1.8829 2.7052 0 0.16969 0.44335 0.71967 0.70812 1.0476 0.21432 0.26548 0.70812 0.73912 0.70812 0.73912s-0.18592 0.5378-0.40067 0.94697c-0.29517 1.4967-1.113 1.9341 1.184 1.277 0.43764-0.22465 0.58273-0.58236 0.58273-0.58236s0.26346 0.6967 0.41592 1.0362c1.1589 2.581 3.0678 5.5796 3.786 7.5964 0.77594 2.1789 0.87118 3.6926 0.30164 4.794-0.55235 1.0681-1.108 1.2113-3.4494 0.88858z"/>
                <path d="m124.09 197.96c-0.87421-0.3511-1.0929-1.2107-0.70137-2.7572 0.18563-0.73332 0.48378-2.2685 0.66254-3.4115 0.17875-1.143 0.4555-2.1878 0.61498-2.3217s1.4806-0.81838 2.9358-1.521c2.2162-1.07 2.9299-1.579 4.3955-3.1349 2.4168-2.5657 2.9713-4.223 2.3088-6.9006-0.24602-0.99429-0.67258-1.6026-2.1413-3.0534-1.7218-1.7009-1.8237-1.8669-1.6652-2.712 0.0929-0.4951 0.31231-0.89774 0.48762-0.89476 0.47522 8e-3 3.4937 4.1384 4.28 5.8566 0.37666 0.82302 0.86835 2.4304 1.0926 3.5719 0.5181 2.6369 0.60289 9.0538 0.14059 10.639-0.48971 1.6797-2.3866 3.4534-5.0954 4.7645-4.018 1.9448-5.924 2.4332-7.3153 1.8744z"/>
                <path d="m125.62 185.42c0-0.18643 2.1294-5.7088 2.837-7.3572l0.76372-1.7794 0.9657 0.65621c1.0316 0.70097 1.5148 1.8444 1.5175 3.5906 3e-3 1.6964-0.45085 2.4932-1.8532 3.2565-1.1972 0.65161-4.2308 1.8227-4.2308 1.6333z"/>
                <path d="m90.165 182.55c0-0.44064 1.1203-4.375 2.1626-7.5953 0.77392-2.3909 1.277-3.443 1.277-2.6707 0 0.19006 0.35719 0.79656 0.79375 1.3478 0.43656 0.55121 0.79375 1.0721 0.79375 1.1574 0 0.0854-0.59543 1.0416-1.3232 2.1249s-1.8097 2.8716-2.4042 3.9739c-1.0894 2.0196-1.2997 2.2886-1.2997 1.662z"/>
                <path d="m145.97 174.66c-1.5599-1.6699-2.6194-4.5868-2.6194-7.2113 0-0.87301 0.36979-3.5005 0.82175-5.839 0.68131-3.5251 0.79409-4.6247 0.65991-6.4345-0.0957-1.2904-0.0609-2.1828 0.0851-2.1828 0.71678 0 3.4264 5.0186 4.1427 7.6729 0.90501 3.3536 0.41203 11.094-0.87411 13.724-0.61671 1.2612-1.2217 1.3352-2.2159 0.2709z"/>
                <path d="m79.156 174.48c-0.96746-0.62473-1.7627-3.8578-2.0968-8.5241-0.1315-1.837-0.0627-3.1901 0.25543-5.0271 0.43399-2.5057 1.5936-7.0873 1.8617-7.3554 0.34217-0.34218 0.40231 0.2369 0.1442 1.3886-0.30147 1.3452-0.17801 2.2863 0.9413 7.1757 0.33545 1.4653 0.75108 3.6734 0.92363 4.9068 0.28531 2.0395 0.26259 2.4448-0.25081 4.4751-0.56266 2.225-1.2209 3.3205-1.7787 2.9603z"/>
                <path d="m108.31 163.15c-67.922 0.23004-33.961 0.11502 0 0z"/>
                <path d="m112.52 163.85c-0.43656-0.28363-1.3751-1.0382-2.0856-1.6769l-1.2919-1.1612 0.59793-1.6956c0.66276-1.8794 0.70869-3.2747 0.18765-5.7004l-0.34874-1.6236 1.338-0.65687c2.5921-1.2725 4.7581-3.6753 5.2852-5.8631l0.18584-0.77129 0.51309 0.84371c0.4306 0.70807 0.4716 1.0235 0.25504 1.9619-0.63265 2.7416-0.13616 4.4938 1.899 6.7016 0.93945 1.0192 1.0554 1.2798 0.92549 2.0805-0.49627 3.0582-4.43 8.0833-6.3234 8.0779-0.18913-5.3e-4 -0.70105-0.23305-1.1376-0.51669z"/>
                <path d="m105.91 156.08c-0.48407-1.1586-0.48674-1.4467-0.0211-2.2876 0.34103-0.61589 0.3708-0.55457 0.5519 1.1365 0.22339 2.086 0.0327 2.4997-0.53077 1.1512z"/>
                <path d="m108.04 149.58c-0.0703-0.11374 0.47331-0.79237 1.208-1.5081 1.7044-1.6603 1.8775-2.1092 1.2739-3.3022-0.31459-0.62173-0.39505-1.0721-0.23634-1.3229 0.13234-0.20916 0.24245-0.69759 0.24468-1.0854 3e-3 -0.50443 0.35353-1.0127 1.2319-1.7859 0.67533-0.59445 1.3271-1.0808 1.4484-1.0808 0.12129 0 0.40719 0.36095 0.63532 0.8021 0.39847 0.77056 0.37299 0.9136-0.64793 3.638-0.86576 2.3103-1.2626 3.0165-2.1414 3.81-1.3131 1.1858-2.8427 2.1164-3.0165 1.8352z"/>
                <path d="m86.482 146.75c0.0127-0.30823 0.0754-0.37092 0.15985-0.15986 0.0764 0.191 0.067 0.4192-0.0209 0.50712-0.0879 0.0879-0.15046-0.0684-0.13897-0.34726z"/>
                <path d="m88.399 145.95c-0.38211-0.99574 0.15504-7.383 0.82102-9.763 0.92909-3.3202 1.2946-4.4155 1.6774-5.0271 0.31766-0.50748 0.3698-0.48589 1.2717 0.52653 1.3543 1.5202 2.5726 4.2107 2.705 5.9734 0.0941 1.2538-0.0127 1.7172-0.71874 3.1157-0.95024 1.8824-4.3286 5.5979-5.09 5.5979-0.27711 0-0.57696-0.19057-0.66633-0.42348z"/>
                <path d="m131.96 142.98c-1.5024-0.96073-3.4764-3.084-4.217-4.5356-0.75461-1.4792-0.93555-3.4269-0.53753-5.7866 0.328-1.9446 1.2146-3.4777 2.0114-3.4777 0.20372 0 0.83874 0.93147 1.4112 2.0699s1.6155 2.8946 2.3181 3.9026l1.2773 1.8327 0.0891 3.1452c0.0684 2.4134 7e-3 3.1973-0.26459 3.3694-0.55565 0.35221-0.83149 0.28353-2.0878-0.5199z"/>
            </g>
            <path fill="#965bab" d="m117.86 189c-1.9304-0.37867-4.5367-1.3072-6.4409-2.2946-2.0707-1.0737-4.0059-3.0413-5.2888-5.3772-0.47093-0.85747-0.93417-1.5605-1.0294-1.5622-0.0953-2e-3 -0.5332 0.63478-0.97323 1.4145-0.69124 1.2248-3.3744 3.807-3.6596 3.5219-0.0528-0.0528 0.44136-0.89749 1.0982-1.877 0.65684-0.97953 1.1943-1.9036 1.1943-2.0535 0-0.25362-0.48876-0.19846-1.9844 0.22399-0.98625 0.27857-0.0413-0.35425 1.2415-0.83138 1.231-0.45787 1.243-0.4741 1.4236-1.9189 0.23584-1.8876 2e-3 -7.9597-0.31845-8.2804-0.2324-0.2324-1.6032 1.4322-8.0685 9.7978-1.1809 1.528-2.9774 3.939-3.9922 5.3578-1.0148 1.4188-1.9027 2.5797-1.9731 2.5797-0.1516 0 2.3211-4.6506 4.3609-8.2021 1.6935-2.9484 2.0916-3.4728 6.2221-8.1959l3.1292-3.5781-0.16631-1.5264c-0.69404-6.3699-0.61713-10.407 0.22946-12.044 1.0673-2.064-0.0337-1.3803-2.1193 1.3161-0.63965 0.82696-1.767 2.5534-2.5052 3.8365-1.6754 2.9119-2.3384 3.615-4.0448 4.289-1.5126 0.59747-4.6673 1.4356-4.8219 1.281-0.0549-0.0549 0.55042-0.30477 1.3451-0.55529 0.79472-0.25051 2.1923-0.95641 3.1056-1.5687 1.5358-1.0294 1.7607-1.3123 2.9903-3.759 1.5802-3.1444 3.2217-5.617 4.3709-6.5841 0.83485-0.70249 4.9896-2.8086 5.5405-2.8086 0.16081 0 0.59121 0.29884 0.95646 0.66408l0.66409 0.66409 1.2318-0.84748c2.9485-2.0286 3.7981-3.16 4.978-6.629 0.33537-0.98605 0.99416-2.3281 1.464-2.9823 0.79793-1.1111 4.5846-4.3632 5.0804-4.3632 0.12288 0-0.51568 0.7391-1.419 1.6424-2.3794 2.3794-3.2894 3.9117-4.1245 6.9449-0.89403 3.2472-1.6273 4.1446-4.6681 5.7126-1.1962 0.61685-2.1999 1.1394-2.2303 1.1612-0.0305 0.0218 0.12967 0.74816 0.35582 1.6142 0.54021 2.0687 0.373 5.0722-0.39127 7.0282-0.31839 0.81487-1.3975 2.8594-2.398 4.5435l-1.8191 3.0619 0.5315 2.2034c0.57275 2.3744 0.73094 5.4134 0.3867 7.4289-0.27569 1.6141 5e-3 1.6314 2.5497 0.15736 3.362-1.9472 6.9595-5.2009 11.153-10.087l1.5397-1.7941-0.33558-1.1164c-0.18457-0.614-0.3257-2.004-0.31363-3.0888 0.0278-2.4974 1.0706-4.8448 2.6333-5.9278 1.1046-0.76547 2.457-0.91275 2.948-0.32105 0.21239 0.25591 0.60842 0.3297 1.229 0.22899 0.67066-0.10883 1.0598-0.0182 1.4543 0.33888 0.73254 0.66294 2.7832 4.1179 4.5819 7.7196 1.1625 2.3277 1.6037 2.9766 2.024 2.9766 0.63477 0 2.5144 0.91679 2.7883 1.36 0.10691 0.17297 0.0771 0.2388-0.0675 0.14939-0.14226-0.0879-1.006-0.28021-1.9194-0.42732-0.91342-0.1471-1.8258-0.40442-2.0275-0.57183-0.50743-0.42113-3.5319-5.698-4.9177-8.58-0.96706-2.0112-1.2521-2.3937-1.8346-2.4613-0.6611-0.0767-0.69545-0.0154-0.83152 1.4852-0.16405 1.8091-0.83919 3.4682-2.3664 5.815-0.9037 1.3887-1.0381 1.7607-0.81276 2.249 0.47744 1.0343 5.2964 6.4402 7.7323 8.674 2.5871 2.3725 3.1857 3.406 3.1857 5.5002 0 1.8324-1.2745 4.2715-2.8679 5.4885-2.2528 1.7205-6.0421 3.3042-9.0897 3.7987-1.8971 0.30785-2.2688 0.30659-3.8992-0.0132zm6.9551-2.2392c5.7206-1.4446 8.108-3.2693 8.108-6.1969 0-2.1675-0.76125-3.375-3.175-5.0366-1.3968-0.96146-5.7415-5.247-7.7164-7.6113l-0.94501-1.1313-0.42993 0.65616c-0.8372 1.2777-6.8467 7.2872-8.7198 8.7198-1.0452 0.79936-2.8761 1.941-4.0687 2.537l-2.1684 1.0837 0.5732 0.98295c0.31525 0.54062 1.3506 1.7723 2.3007 2.7371 1.8726 1.9014 3.287 2.6005 6.6223 3.2732 2.4626 0.49667 7.6268 0.48917 9.6191-0.014zm-19.379-23.196c1.345-2.675 1.7902-3.8924 2.0987-5.7385 0.27027-1.6174-0.0702-4.6903-0.64028-5.7783l-0.3606-0.68823-0.678 1.0386c-1.3909 2.1306-1.8275 4.1006-1.9745 8.9099-0.0975 3.1915-0.052 4.4318 0.16277 4.4318 0.16402 0 0.79038-0.97885 1.3919-2.1752zm18.174-1.9328c1.3144-1.9177 1.4215-2.1849 1.3018-3.2472-0.1798-1.5952-0.49428-1.8461-1.6332-1.3029-1.0943 0.52184-2.2215 2.1226-2.4392 3.4641-0.17661 1.0883 0.57464 3.4302 1.0496 3.2719 0.15879-0.0529 0.93324-1.0366 1.721-2.1859zm-3.3155-7.4021c-2.4995-2.1395-2.8723-5.3168-1.0708-9.1274 0.70902-1.4998 0.90733-2.2176 0.81213-2.9393-0.10485-0.79497 0.0157-1.1164 0.7198-1.9182 1.0149-1.1559 1.5759-1.2878 0.755-0.17748-0.3667 0.49598-0.60926 1.2588-0.65768 2.0683-0.0422 0.70539-0.38273 2.4603-0.75675 3.8998-0.53628 2.064-0.64421 2.9552-0.51058 4.2155 0.20279 1.9126 0.91682 3.6863 1.6744 4.1595 0.55607 0.34727 0.73467 0.74604 0.33413 0.74604-0.11933 0-0.70417-0.41704-1.2997-0.92675zm10.067 0.42737c-1.0813-0.50538-1.6858-1.304-2.0252-2.6756-0.09-0.3638-0.64253-1.289-1.2278-2.0559s-1.064-1.4616-1.064-1.5436c0-0.4204 2.1809 1.6602 2.8771 2.7448 1.4449 2.251 1.6779 2.4972 2.8583 3.0193 1.115 0.49324 1.2256 0.49655 2.4953 0.0748 1.6058-0.53336 2.0534-0.30541 0.60733 0.30934-1.5996 0.68-3.239 0.726-4.521 0.12683zm-6.8984-1.2713c-0.28736-0.40857-0.71874-1.1271-0.95862-1.5968-0.41315-0.80892-0.40805-0.90633 0.0967-1.8482 0.29308-0.54683 0.53287-1.3215 0.53287-1.7216 0-0.4234 0.31063-1.075 0.74332-1.5593 0.60375-0.67571 1.0004-0.85661 2.1124-0.96346 1.8157-0.17447 2.3888 0.23192 3.7192 2.6375 0.58638 1.0602 1.5412 2.3901 2.1218 2.9553 1 0.97352 1.1228 1.0198 2.331 0.87951 0.7015-0.0815 1.5731-0.22308 1.9369-0.31467 0.50598-0.12739 0.44379-0.0429-0.26459 0.35933-1.3426 0.76243-2.7129 0.94204-3.6176 0.47419-0.75701-0.39147-2.5728-2.2394-4.3359-4.4127-0.90339-1.1136-0.97928-1.1506-1.8466-0.90187-0.54742 0.157-1.023 0.51726-1.2047 0.91254-0.16508 0.35922-0.56778 1.2125-0.89489 1.8962-0.57349 1.1987-0.57953 1.2877-0.1691 2.4923 0.50783 1.4904 0.40911 1.7229-0.30216 0.71163zm-15.625-5.8741c0.78792-1.4224 0.83211-1.6187 0.50272-2.2342-0.22323-0.41711-0.30618-1.0846-0.2172-1.7479l0.14393-1.0731h-0.92292c-1.2706 0-1.0154-0.59479 0.38365-0.8942 1.6771-0.3589 2.0063-0.12102 1.8426 1.3316-0.0863 0.76561 6e-3 1.565 0.24645 2.1412 0.36371 0.87048 0.34795 0.97168-0.29613 1.9011-0.61739 0.8909-2.0121 2.135-2.3936 2.135-0.0844 0 0.23536-0.70174 0.71048-1.5594z"/>
            <g fill="#52945b">
                <path d="m112.67 233.58c-2.1166-5.347-1.2069-11.582-2.2729-17.26 0.13902-5.0425-3.6089-9.0606-4.3407-13.482-1.7758-1.6664-5.7039-4.3655-0.66477-3.284 2.0751 1.2151 2.7079 2.1271 3.8108 0.46883 3.0753 4.2922 10.325 0.0333 11.993 0.30285-1.0689 1.2078 10.007-3.4397 4.077 0.59774-3.8224 2.897-3.7174 7.419-6.3361 11.419-1.4412 6.8775-1.5145 13.986-2.7574 20.862-1.0471 0.52563-2.3749 0.67756-3.5091 0.37582z"/>
                <path d="m98.414 228.06c-7.4317-0.94515-9.3401-9.2246-15.741-11.437-7.5516-1.9592-14.971-4.7947-22.55-6.3949 4.3361-0.0524 8.2195-2.7374 1.8486-3.9029-3.9453-1.5745-7.4073-7.9234-7.3963-11.053 3.2071-4.6941 2.6043-12.046-1.6172-16.036-2.7287-2.2509-2.6453-3.1151 0.80787-1.5678 6.2711-0.70021-0.35018-8.3877 2.0889-12.471 1.4938-3.5807-2.131-7.9586 2.962-7.6705 5.0803-4.3597 9.6185-9.3094 14.633-13.738-5.3556 8.3803-11.22 16.84-12.754 26.922-2.6872 11.886 2.7741 24.187 11.571 32.138 5.8667 6.4232 12.334 12.246 19.483 17.209 2.7472 2.8414 7.6229 5.1002 8.7654 8.5513-0.74465 0.0378-1.4334-0.26971-2.1-0.54891z"/>
                <path d="m128.2 228.87c2.9452-4.2455 7.5798-7.1427 11.519-10.469 8.7169-5.9997 16.012-13.852 22.789-21.911 6.264-8.5697 8.0858-20.04 4.5127-30.078-2.2344-8.1814-7.248-15.349-11.787-22.258 4.8294 3.8698 9.1653 9.0355 14.073 13.11 1.7406 2.461 5.4617-0.28711 3.2922 3.9391 0.042 3.5136 0.89293 7.0982 0.79808 10.561-3.2461 4.12 0.48171 8.5979 5.0566 5.1884-4.052 3.4266-7.6255 8.9685-5.9273 14.616 0.31255 3.6252 4.3562 4.7452 0.55385 7.7266-1.1797 5.4262-6.5556 7.1989-10.215 9.6668 2.0394 1.3895 9.1714 1.3508 2.5761 2.2699-7.3568 2.6739-15.275 3.9218-22.376 7.1752-3.623 4.309-7.2092 8.8522-13.087 10.143-0.42763-0.26265-1.3207 0.88346-1.7785 0.32111z"/>
                <path d="m138.14 190.91c0.32421-4.4649 0.32793-9.0837 2.8055-12.983 1.2611-2.8119 1.6292-7.1112 4.3527-2.0206 3.7455 5.1338-2.3629 11.436-5.5822 15.269-0.45487 0.27451-1.754 0.84904-1.5759-0.26458z"/>
                <path d="m122.05 179.77c-1.8576-2.9004-6.1782-7.6671-1.7943-10.005 2.2535-2.6755 4.8257 4.965 7.3121 6.0264 0.43665 0.94689-3.7297 6.825-5.5178 3.9791z"/>
                <path d="m99.627 178.4c-2.5509-1.4268 1.6218-4.6167 2.5586-5.139-3e-3 1.7538 1.2258 8.6344-2.5586 5.139z"/>
                <path d="m106.62 176.86c1.4174-3.4898-2.0397-7.3937-0.3498-9.9699 1.8806-5.0362 3.6742-2.7596 5.008 0.99807 2.1002 3.2046 0.0509 7.4039-2.782 8.6756-0.666-0.26135-1.2617 0.73742-1.8762 0.29617z"/>
                <path d="m96.626 173.04c-0.78377-4.3983 0.25814-7.0754 2.413-10.862 2.7222-4.6097 1.7131 1.4184 2.3457 3.8642 0.88771 2.448-3.5483 6.4539-4.7587 6.998z"/>
                <path d="m129.04 171.71c-1.3995-1.5427-5.3785-4.8641-4.8038-7.1506 2.0668-2.4518 2.7537-7.2627 4.2328-1.5657 1.0389 1.9406 1.7992 9.0546 0.57107 8.7164z"/>
                <path d="m117.3 167.89c-0.14358-2.8803 1.947-6.0522 1.9502-1.6943-1.0106-0.0118-1.4446 2.8498-1.9502 1.6943z"/>
                <path d="m122.17 160.97c0.5278-3.8375 2.7791-1.1133-0.0763 1.2314 0.0254-0.41045 0.0509-0.82091 0.0763-1.2314z"/>
                <path d="m105.18 159.97c0.76236-4.6989 0.59555 4.0374 0 0z"/>
                <path d="m82.958 158.32c-3.3269-2.2496-2.191-8.1803-0.82438-11.573 0.74819-2.0331 6.1269-9.1832 5.5264-3.4077-0.94022 2.9399-1.0774 6.2615-1.7252 9.4545-0.60382 1.7457-0.66563 5.5-2.9769 5.5262z"/>
                <path d="m139.84 156.15c-2.1324-0.83935-2.5544-3.1078-2.2126-4.5306-2.2638-0.87599-1.7957-5.5574-1.3072-8.4354-1.2389-7.567 5.1247 0.021 6.3754 2.7097 0.58615 2.0544 2.9282 8.3039-0.70493 10.316-0.66875 0.0129-1.5412 0.4283-2.1507-0.0596z"/>
                <path d="m102.21 149.39c-3.9938-2.137-5.0049-7.9822-3.1245-11.665 1.5726-2.5572 2.8723-5.055 4.7822-7.3998 1.8077-0.11584 2.6724 3.7508 3.7001 5.0185 2.0452 2.8206 1.525 5.6436-2.2372 6.6876 1.5085 2.7085 2.3186 4.9185-0.73001 7.0202-0.75267 0.22434-1.376 0.83012-2.3906 0.33832z"/>
            </g>
        </g>
    </g>
</svg>
