<?xml version="1.0" encoding="UTF-8" standalone="no"?>
<!-- Created with Inkscape (http://www.inkscape.org/) -->

<svg
   xmlns:dc="http://purl.org/dc/elements/1.1/"
   xmlns:cc="http://creativecommons.org/ns#"
   xmlns:rdf="http://www.w3.org/1999/02/22-rdf-syntax-ns#"
   xmlns:svg="http://www.w3.org/2000/svg"
   xmlns="http://www.w3.org/2000/svg"
   xmlns:xlink="http://www.w3.org/1999/xlink"
   xmlns:sodipodi="http://sodipodi.sourceforge.net/DTD/sodipodi-0.dtd"
   xmlns:inkscape="http://www.inkscape.org/namespaces/inkscape"
   width="629.61469"
   height="723.84515"
   viewBox="0 0 166.58556 191.51739"
   version="1.1"
   id="svg8"
   inkscape:version="0.92.3 (2405546, 2018-03-11)"
   sodipodi:docname="nudc_logo.svg"
   inkscape:export-filename="C:\Users\Elly\Desktop\NUDC\logo_with_text.png"
   inkscape:export-xdpi="299.94028"
   inkscape:export-ydpi="299.94028">
  <title
     id="title881">NUDC 2019 Logo</title>
  <defs
     id="defs2">
    <inkscape:perspective
       sodipodi:type="inkscape:persp3d"
       inkscape:vp_x="0 : 99.218764 : 1"
       inkscape:vp_y="0 : 1000.0001 : 0"
       inkscape:vp_z="198.43751 : 99.218764 : 1"
       inkscape:persp3d-origin="99.218755 : 66.145843 : 1"
       id="perspective914" />
    <linearGradient
       inkscape:collect="always"
       id="linearGradient4812">
      <stop
         style="stop-color:#965bab;stop-opacity:1;"
         offset="0"
         id="stop4808" />
      <stop
         style="stop-color:#c569c8;stop-opacity:1"
         offset="1"
         id="stop4810" />
    </linearGradient>
    <linearGradient
       inkscape:collect="always"
       xlink:href="#linearGradient4812"
       id="linearGradient4816"
       gradientUnits="userSpaceOnUse"
       x1="112.74878"
       y1="112.74268"
       x2="112.01914"
       y2="92.537117" />
    <linearGradient
       inkscape:collect="always"
       xlink:href="#linearGradient4812"
       id="linearGradient4884"
       x1="112.37979"
       y1="129.30193"
       x2="111.91754"
       y2="97.871025"
       gradientUnits="userSpaceOnUse" />
  </defs>
  <sodipodi:namedview
     id="base"
     pagecolor="#ffffff"
     bordercolor="#666666"
     borderopacity="1.0"
     inkscape:pageopacity="0.0"
     inkscape:pageshadow="2"
     inkscape:zoom="0.70710678"
     inkscape:cx="177.18643"
     inkscape:cy="381.54658"
     inkscape:document-units="mm"
     inkscape:current-layer="layer1"
     showgrid="false"
     inkscape:snap-nodes="false"
     inkscape:window-width="1920"
     inkscape:window-height="1016"
     inkscape:window-x="0"
     inkscape:window-y="27"
     inkscape:window-maximized="1"
     fit-margin-top="10"
     fit-margin-left="10"
     fit-margin-right="10"
     fit-margin-bottom="10"
     inkscape:pagecheckerboard="false"
     showborder="true"
     borderlayer="false"
     inkscape:showpageshadow="true"
     units="px" />
  <metadata
     id="metadata5">
    <rdf:RDF>
      <cc:Work
         rdf:about="">
        <dc:format>image/svg+xml</dc:format>
        <dc:type
           rdf:resource="http://purl.org/dc/dcmitype/StillImage" />
        <dc:title>NUDC 2019 Logo</dc:title>
        <dc:date>2019-01-12</dc:date>
        <dc:creator>
          <cc:Agent>
            <dc:title>James Shaw</dc:title>
          </cc:Agent>
        </dc:creator>
        <dc:rights>
          <cc:Agent>
            <dc:title>Copyright Edinburgh University Ballroom Dancing Society</dc:title>
          </cc:Agent>
        </dc:rights>
      </cc:Work>
    </rdf:RDF>
  </metadata>
  <g
     inkscape:groupmode="layer"
     id="layer2"
     inkscape:label="Logo"
     transform="translate(-13.624061,-4.2929936)">
    <g
       id="g890"
       transform="translate(-15.523937,-63.54532)"
       inkscape:export-xdpi="299.94028"
       inkscape:export-ydpi="299.94028">
      <path
         style="fill:#b7dca2;stroke-width:0.26458332"
         d="m 87.792938,191.64414 c -3.072363,-2.00293 -5.588181,-4.97853 -7.115024,-8.31126 -0.802951,-3.43755 -0.216528,-7.20384 1.597023,-10.24168 2.279174,-0.58967 2.954207,4.12559 4.290826,5.72577 1.31183,2.57643 2.561611,5.36738 2.115207,8.32589 0.410953,1.21175 3.115245,5.71697 0.0097,4.87325 l -0.432634,-0.16027 z m 49.631032,-12.86759 c -1.87605,-3.23107 -4.14424,-6.6342 -4.16605,-10.49941 0.88208,-0.29098 6.33228,1.54047 4.60207,-1.18065 -1.61852,-1.00678 -3.89325,-1.64605 -4.1076,-3.81151 0.95145,-2.60776 1.70033,-5.28323 2.1937,-8.01446 1.45468,-1.57489 2.8432,2.79346 3.90437,3.8292 2.89283,4.28902 2.7493,9.81246 1.58009,14.64278 -0.78765,1.48006 -1.66098,6.43275 -4.00658,5.03405 z M 92.70636,161.31407 c -3.374249,-4.15365 -3.403247,-10.45007 -0.733577,-14.98222 1.135745,-1.48908 2.609088,-5.94383 4.388132,-5.14192 1.414171,3.60902 2.485204,7.34211 3.896175,10.95256 -1.979727,2.65549 -3.592471,5.5464 -5.188831,8.43848 -0.607133,0.92961 -1.430005,2.1978 -2.361899,0.7331 z m 6.93285,-7.57438 c 0.8253,-1.00973 1.31035,-0.78378 0,0 z"
         id="path874"
         inkscape:connector-curvature="0" />
      <path
         sodipodi:nodetypes="cscccscccccccsccsscccccsccscccccsccscscccccccscsccc"
         style="fill:url(#linearGradient4884);fill-opacity:1;stroke-width:0.26458332"
         d="m 111.70614,136.08029 c -0.50682,-0.61068 -2.5349,-18.36233 -2.95464,-25.86182 -0.30065,-5.3717 -0.32612,-15.357665 -0.0418,-16.404165 0.30583,-1.1258 1.6817,-1.62576 4.22274,-1.53444 2.99148,0.1075 3.09793,0.24877 3.35012,4.44608 0.27115,4.512955 -0.51264,20.693775 -1.59665,32.961345 -0.41932,4.74542 -0.68805,6.15169 -1.24286,6.50384 -0.50675,0.32164 -1.42668,0.26294 -1.73688,-0.11084 z m 21.67818,-3.33599 c -0.2711,-0.27111 -0.57656,-0.9388 -0.6788,-1.48376 -0.17369,-0.92584 0.0524,-1.40983 3.4463,-7.37843 3.95108,-6.9484 7.49369,-12.73468 9.13494,-14.92041 0.85475,-1.13833 1.18714,-1.38907 1.84135,-1.38907 1.21921,0 2.26915,0.67758 3.01071,1.94295 1.3318,2.27255 1.19252,2.598 -4.49673,10.50789 -3.15022,4.37983 -3.59244,4.96813 -6.22353,8.27962 -1.33878,1.68499 -4.84821,4.93413 -5.32941,4.93413 -0.11655,0 -0.43372,-0.22182 -0.70483,-0.49292 z m -9.74196,-1.8309 c -0.17215,-0.10948 -0.72118,-0.87688 -1.22005,-1.70535 l -0.90705,-1.50629 1.16104,-3.19971 c 1.38718,-3.82295 1.56938,-4.58262 3.42576,-14.28358 1.83532,-9.59095 2.91466,-14.091515 3.5833,-14.941565 0.72959,-0.92751 1.74831,-0.86301 4.07967,0.25833 2.91652,1.4028 3.63717,2.58397 2.93545,4.811365 -1.9227,6.10304 -7.35355,20.99217 -9.10173,24.95312 -2.61416,5.92307 -2.87898,6.29883 -3.95639,5.61368 z m -35.347169,-1.30478 c -0.549868,-0.37751 -1.969836,-2.00746 -3.155484,-3.62212 -1.951361,-2.65743 -7.881032,-10.1354 -10.057593,-12.68374 -0.720812,-0.84393 -0.868415,-1.23355 -0.868415,-2.29231 0,-1.57722 1.114531,-3.3329 2.569554,-4.04772 0.87984,-0.43225 1.044736,-0.44008 1.736185,-0.0825 0.938556,0.48535 2.565016,2.5922 3.90475,5.05805 0.553444,1.01864 2.105972,3.46656 3.45006,5.4398 2.76307,4.05645 5.405075,8.61035 5.405075,9.31649 0,0.5739 -1.516764,3.63865 -1.789748,3.61635 -0.107045,-0.009 -0.644519,-0.32478 -1.194384,-0.70228 z m 11.618657,-1.13988 C 98.498169,126.7863 89.096357,101.19921 88.710015,97.977435 c -0.11516,-0.96033 -0.04636,-1.37667 0.28866,-1.74686 0.660006,-0.7293 4.541703,-2.46772 5.835841,-2.61359 1.527177,-0.17214 2.001056,0.47861 2.001056,2.74792 0,1.68088 2.210226,13.433975 3.199668,17.014555 0.30372,1.09911 1.1458,3.96291 1.87128,6.36401 1.0999,3.64031 1.29648,4.60068 1.18321,5.78044 -0.14838,1.54559 -0.97172,3.0141 -1.93628,3.45359 -0.49489,0.22548 -0.68872,0.14593 -1.239602,-0.50876 z"
         id="path872"
         inkscape:connector-curvature="0" />
      <path
         sodipodi:nodetypes="csccccssccscccsccccccccscccsccccsscsccccccccccccccccssccccccccccccccscccsscsccc"
         style="fill:#96cd76;stroke-width:0.26458332"
         d="m 116.65904,199.94592 c -0.0348,-0.0288 -1.11232,-0.12434 -2.39458,-0.21235 -2.6305,-0.18055 -4.40347,-0.82518 -5.07083,-1.8437 -0.60683,-0.92613 -1.45367,-5.23883 -1.45784,-7.42429 -0.002,-1.00187 0.13525,-2.57451 0.30481,-3.49476 l 0.3083,-1.67318 0.87181,0.76546 c 1.36882,1.20184 3.11539,2.12766 5.54236,2.93791 3.09874,1.03452 4.78059,1.30491 6.58969,1.05941 l 1.53596,-0.20843 -0.16354,2.5405 c -0.24414,3.79262 -0.88845,5.44967 -2.61677,6.72992 -0.57472,0.42572 -3.17897,1.04747 -3.44937,0.82351 z m 1.52431,-13.89037 c -3.65552,-0.29237 -6.79079,-1.2414 -8.30195,-2.51296 -1.00615,-0.84662 -0.9854,-1.11299 0.29068,-3.73015 0.58159,-1.1928 1.26218,-2.06225 2.30183,-2.94058 0.81186,-0.68587 2.10251,-1.83255 2.86811,-2.54818 0.7656,-0.71562 1.4392,-1.25285 1.49691,-1.19383 0.0577,0.059 0.94159,1.65512 1.96422,3.54689 2.17885,4.03068 3.47284,7.13542 3.55492,8.52956 0.0551,0.93636 0.0115,0.99738 -0.73514,1.02815 -0.43656,0.018 -1.98437,-0.0625 -3.43958,-0.1789 z m -30.913152,-9.34851 c -3.04254,-3.13055 -4.46299,-8.84226 -3.10009,-12.46564 1.94959,-5.18312 3.81574,-9.33876 4.13815,-9.21504 0.37463,0.14376 1.534329,2.96856 2.463969,6.00177 0.30575,0.99759 0.55592,1.85017 0.55592,1.89462 0,0.17617 -2.299929,1.15064 -3.105819,1.31592 -1.03807,0.2129 -1.28842,0.54839 -0.82548,1.10619 0.28387,0.34205 0.74599,0.39397 2.520879,0.28324 l 2.17329,-0.13559 0.28002,1.3057 c 0.50663,2.36235 0.34395,3.86658 -0.76378,7.0623 -0.5728,1.65249 -1.24557,3.23006 -1.49504,3.50573 -0.739459,0.81709 -1.601569,0.61713 -2.842019,-0.6592 z m 43.677032,-18.72827 c -1.8233,-2.82635 -2.88746,-3.75926 -4.0412,-3.54282 -1.05835,0.19855 -1.42262,-0.20253 -1.83107,-2.01606 -0.25351,-1.12564 -0.23573,-1.49962 0.10608,-2.23127 0.22586,-0.48343 0.48753,-0.88284 0.5815,-0.88758 0.26915,-0.0136 1.75762,2.43021 1.94656,3.19589 0.23035,0.93344 1.58329,2.53254 2.57781,3.04683 0.4564,0.23601 1.4925,0.42588 2.36907,0.43414 l 1.55791,0.0147 -0.16283,0.81712 c -0.31215,1.56641 -0.6775,2.47601 -1.17561,2.92678 -0.48308,0.43718 -0.55398,0.37255 -1.92822,-1.7577 z m 2.18508,-6.91004 c -0.62302,-0.31295 -1.13778,-0.9998 -3.04271,-4.05992 -1.10867,-1.78098 -2.33159,-2.56033 -3.77031,-2.40276 -0.6479,0.071 -1.12448,0.0122 -1.12448,-0.1385 0,-0.58663 1.43766,-5.75876 1.60072,-5.75876 0.30103,0 3.16723,3.71436 4.90001,6.35 2.07545,3.15688 3.22906,6.36633 2.28105,6.3461 -0.10055,-0.002 -0.48048,-0.15342 -0.84428,-0.33616 z M 121.369,147.87771 c -0.47133,-0.34464 -0.46748,-0.42945 0.11734,-2.57968 0.33258,-1.22283 0.62732,-2.71838 0.65498,-3.32345 0.0277,-0.60506 0.25712,-1.41578 0.50991,-1.80158 0.5908,-0.90167 0.4648,-1.78507 -0.27037,-1.89558 -0.39538,-0.0594 -0.92047,0.29511 -1.74911,1.181 -1.03284,1.10418 -1.20916,1.46679 -1.38002,2.83798 -0.10773,0.86463 -0.31351,1.79243 -0.45729,2.06177 -0.23616,0.44242 -0.32617,0.39441 -0.932,-0.49715 -0.65885,-0.96958 -0.66267,-1.00348 -0.2181,-1.93574 0.52167,-1.09397 1.61223,-2.55267 3.23672,-4.32934 1.20543,-1.31837 1.48923,-2.32644 0.65494,-2.32644 -0.62036,0 -2.57074,1.29277 -4.31124,2.85764 l -1.36219,1.22472 0.11624,-1.60694 c 0.1043,-1.44203 0.33031,-1.96375 2.20228,-5.08389 1.14732,-1.91232 2.16692,-3.47695 2.26576,-3.47695 0.53412,0 3.3762,5.36361 4.0572,7.65679 0.2344,0.7893 0.42617,2.10881 0.42617,2.93224 0,1.98426 -0.88104,5.34964 -1.67959,6.41566 -0.35213,0.47008 -0.72161,1.12258 -0.82107,1.45 -0.20938,0.6893 -0.38924,0.72982 -1.06056,0.23894 z"
         id="path870"
         inkscape:connector-curvature="0" />
      <path
         sodipodi:nodetypes="cscsccsccscccsscscccsccscccccsscsccccccscccccccssscssccc"
         style="fill:url(#linearGradient4816);fill-opacity:1;stroke-width:0.26458332"
         d="m 136.57444,136.65591 c -1.06998,-0.80963 -0.67538,-1.74419 1.91387,-4.53273 2.87058,-3.09152 8.04875,-9.5262 9.76325,-12.13233 1.46842,-2.2321 2.42335,-3.3073 2.93733,-3.3073 1.29977,0 3.48823,2.40519 3.48647,3.83173 -0.001,1.09898 -0.52393,1.86415 -3.97846,5.82557 -4.36386,5.00416 -6.68825,7.23348 -9.4655,9.07835 -2.59311,1.72256 -3.64555,2.00205 -4.65696,1.23671 z m -51.630137,-1.21897 c -2.67261,-1.68656 -11.90011,-10.45532 -13.02854,-12.38084 -1.196344,-2.04142 -0.830168,-4.35549 0.86499,-5.4662 1.5476,-1.01404 3.34678,0.32612 7.0965,5.286 2.64376,3.49698 6.57664,8.11268 7.83539,9.19576 0.44984,0.38705 0.81788,0.95642 0.81788,1.26527 0,1.33278 -1.11479,2.92579 -2.04747,2.92579 -0.1266,0 -0.81904,-0.3716 -1.53875,-0.82578 z m 22.244047,-2.81224 c -4.10929,-9.73274 -6.48016,-19.4115 -7.663962,-31.28698 -0.571575,-5.734028 0.569992,-8.102925 1.392162,-8.925115 0.65282,-0.65281 0.78015,-0.6758 3.1663,-0.57143 3.89414,0.17031 2.58122,1.648217 2.79965,9.966715 0.47168,17.96264 0.83114,21.76696 2.86596,30.33193 0.77904,3.27912 0.79241,3.43202 0.32978,3.77031 -1.04592,0.7648 -1.30344,0.47203 -2.88989,-3.28543 z m -11.294237,1.32292 c -0.21523,-0.25466 -0.78125,-1.41552 -1.25781,-2.57969 -1.15221,-2.81466 -9.32104,-17.29151 -13.73524,-24.34167 -1.15372,-1.84266 -1.25729,-2.65876 -0.51954,-4.09389 0.72812,-1.41639 2.42305,-2.40176 4.25311,-2.47259 2.11338,-0.0818 2.80393,1.01922 5.61207,8.94773 2.21856,6.2639 3.341,9.20911 5.49924,14.42972 2.46228,5.95605 3.17934,8.22237 2.86397,9.05185 -0.28689,0.75458 -1.2422,1.52156 -1.89517,1.52156 -0.23611,0 -0.60539,-0.20836 -0.82063,-0.46302 z m 18.937047,-1.05834 c 0.94276,-3.06213 1.68339,-7.38017 2.71151,-15.80885 0.54362,-4.45662 0.70041,-7.12715 0.79225,-13.49375 0.063,-4.365628 -0.20638,-10.435382 -0.14124,-10.744382 0.20508,-0.9729 2.22316,-0.167288 4.4986,0.186462 4.33024,0.67321 4.14074,2.396762 2.97219,12.01313 -0.72514,5.96742 -2.66944,14.19171 -4.37851,18.52083 -1.22574,3.10481 -4.19715,8.70599 -4.92027,9.27479 -0.84322,0.66328 -1.73203,0.69326 -1.53453,0.0518 z m 15.14894,-3.83942 -1.20949,-1.41573 0.40841,-1.56398 c 0.22463,-0.8602 1.00721,-2.98758 1.73907,-4.72752 0.73186,-1.73994 2.31605,-5.91104 3.52042,-9.26912 3.31859,-9.25304 4.07099,-10.73579 5.44768,-10.73579 1.09387,0 2.50944,0.63997 3.85569,1.74312 0.99446,0.81488 1.14488,1.07387 1.14488,1.97122 0,1.5379 -0.80653,3.12715 -5.95238,11.72906 -2.57798,4.30941 -5.25743,9.11211 -5.95433,10.67266 -0.69689,1.56055 -1.38484,2.87661 -1.52876,2.92459 -0.14393,0.048 -0.80596,-0.54986 -1.47119,-1.32851 z"
         id="path868"
         inkscape:connector-curvature="0" />
      <path
         style="fill:#5bb327;stroke-width:0.26458332"
         d="m 106.12729,230.79317 c -1.90804,-0.32879 -3.2848,-1.31326 -7.358065,-5.26148 -4.59993,-4.45871 -6.09468,-5.73426 -10.889836,-9.29294 -6.40131,-4.75068 -10.60832,-8.66035 -16.590973,-15.41836 -8.42592,-9.51795 -11.00591,-16.13747 -10.24892,-26.29585 0.4864,-6.52733 1.37576,-9.60243 4.73598,-16.37547 2.47669,-4.99215 4.22891,-7.9241 8.043123,-13.45843 2.40354,-3.48748 3.33683,-4.40446 3.33683,-3.2785 0,0.33654 -0.15994,0.84674 -0.35543,1.13378 -0.19548,0.28704 -1.15963,2.53295 -2.14254,4.9909 -0.98292,2.45795 -2.719463,6.64546 -3.858993,9.30557 -3.43263,8.01316 -4.04275,9.80919 -3.84323,11.31329 0.35808,2.69936 1.34333,4.12749 2.57729,3.73585 0.46761,-0.14842 0.52727,-0.0967 0.36428,0.31607 -0.19522,0.49431 -0.68675,2.30148 -1.88857,6.94362 -1.20922,4.67074 -0.68735,6.89095 2.31443,9.8465 2.142813,2.10979 3.535513,2.73935 6.068693,2.74332 1.10773,0.002 2.17929,-0.12954 2.38125,-0.29172 0.20196,-0.16217 0.63143,-0.37583 0.95438,-0.47478 l 0.58718,-0.17993 -0.55166,1.24711 c -0.65108,1.47189 -0.67367,2.54096 -0.10543,4.99113 0.57374,2.47396 1.69575,4.71144 3.38829,6.75684 2.91704,3.52521 6.7235,6.28988 10.902256,7.91844 3.64035,1.41873 4.48864,1.5527 5.4291,0.85738 l 0.746225,-0.5517 -0.423925,1.07922 c -0.39635,1.00901 -0.39269,1.1331 0.0564,1.90722 0.332245,0.57276 0.549525,1.73963 0.704885,3.78549 0.39869,5.25015 2.19938,9.22735 4.58741,10.13226 0.86397,0.32739 5.18067,0.41927 6.30512,0.1342 0.68922,-0.17472 0.72761,-0.1361 0.72761,0.73201 v 0.91646 l -1.78594,0.16867 c -2.03402,0.19211 -2.67874,0.18032 -4.16719,-0.0762 z"
         id="path4846"
         inkscape:connector-curvature="0" />
      <path
         style="fill:#5bb327;stroke-width:0.26458332"
         d="m 118.0128,230.86307 -1.38907,-0.11357 v -0.9409 c 0,-0.89476 0.0357,-0.93185 0.72761,-0.75644 0.40018,0.10145 1.84151,0.17842 3.20296,0.17104 4.13966,-0.0224 5.29265,-0.93126 6.84521,-5.39563 0.43516,-1.25132 0.75397,-2.96184 0.92354,-4.95518 0.14616,-1.71811 0.42052,-3.29947 0.62983,-3.6302 0.48865,-0.77213 0.47078,-1.93171 -0.041,-2.66241 -0.51127,-0.72993 -0.27777,-0.75268 0.60426,-0.0589 0.88663,0.69742 1.20128,0.67459 3.95372,-0.28696 4.45905,-1.55775 7.77983,-3.7018 11.08914,-7.1597 2.89814,-3.02827 4.15339,-5.46754 4.88424,-9.49136 0.28163,-1.55057 0.25856,-1.85319 -0.24042,-3.15454 -0.30356,-0.79169 -0.50629,-1.48508 -0.4505,-1.54086 0.0558,-0.0558 0.49944,0.11323 0.98591,0.37559 1.27895,0.68977 4.19382,0.63174 5.86267,-0.11671 1.59641,-0.71597 4.38255,-3.48475 5.181,-5.14873 0.90117,-1.87806 0.78719,-3.78272 -0.52721,-8.80943 -1.51194,-5.78221 -1.47015,-5.53596 -0.90257,-5.31816 1.3436,0.51559 2.72099,-2.29239 2.43788,-4.96992 -0.088,-0.83218 -0.96625,-3.30461 -2.30967,-6.50213 -1.19224,-2.83766 -3.23448,-7.77044 -4.53833,-10.96174 -1.30384,-3.1913 -2.52685,-6.10833 -2.71778,-6.48229 -0.19093,-0.37396 -0.43429,-1.09665 -0.54079,-1.60598 l -0.19363,-0.92604 0.84742,0.79375 c 1.01882,0.95429 5.94239,8.21854 8.06839,11.90413 2.14367,3.71621 4.82392,9.38483 5.69487,12.04437 1.44828,4.4225 2.17827,11.67301 1.61126,16.00359 -1.1457,8.75033 -5.29845,15.26193 -17.1341,26.86661 -3.01687,2.958 -5.68164,5.2315 -9.52778,8.12883 -4.88532,3.68014 -9.03716,7.21692 -11.06465,9.42552 -1.66809,1.8171 -4.54289,4.23175 -5.59722,4.70131 -1.1562,0.51493 -3.98059,0.76879 -6.37517,0.57302 z"
         id="path4844"
         inkscape:connector-curvature="0" />
      <path
         style="fill:#5bb327;stroke-width:0.26458332"
         d="m 103.26228,198.30931 c -2.52765,-0.34836 -5.882,-1.21253 -7.19091,-1.85256 -2.85265,-1.39491 -5.347066,-4.67903 -5.788186,-7.62066 -0.16633,-1.10911 -0.0988,-1.27623 1.356726,-3.35941 2.13109,-3.04996 5.67021,-7.61619 5.90305,-7.61619 0.26583,0 1.88286,2.32329 1.88286,2.70523 0,0.16969 0.44335,0.71967 0.70812,1.04764 0.21432,0.26548 0.70812,0.73912 0.70812,0.73912 0,0 -0.18592,0.5378 -0.40067,0.94697 -0.29517,1.49671 -1.112968,1.93407 1.18399,1.27703 0.43764,-0.22465 0.58273,-0.58236 0.58273,-0.58236 0,0 0.26346,0.6967 0.41592,1.03624 1.15886,2.58097 3.06776,5.57957 3.78598,7.59642 0.77594,2.17891 0.87118,3.69257 0.30164,4.79395 -0.55235,1.06813 -1.108,1.21126 -3.44937,0.88858 z"
         id="path4842"
         inkscape:connector-curvature="0" />
      <path
         style="fill:#5bb327;stroke-width:0.26458332"
         d="m 124.09199,197.95827 c -0.87421,-0.3511 -1.09287,-1.21069 -0.70137,-2.75719 0.18563,-0.73332 0.48378,-2.26848 0.66254,-3.41147 0.17875,-1.14299 0.4555,-2.18776 0.61498,-2.32171 0.15948,-0.13395 1.48059,-0.81838 2.9358,-1.52095 2.21623,-1.06999 2.92993,-1.579 4.39548,-3.13488 2.41678,-2.56572 2.97127,-4.22302 2.30876,-6.90057 -0.24602,-0.99429 -0.67258,-1.60256 -2.14126,-3.05344 -1.72179,-1.70091 -1.82371,-1.86689 -1.66517,-2.71198 0.0929,-0.4951 0.31231,-0.89774 0.48762,-0.89476 0.47522,0.008 3.49367,4.13837 4.28005,5.85662 0.37666,0.82302 0.86835,2.43036 1.09263,3.57187 0.5181,2.63694 0.60289,9.05377 0.14059,10.63948 -0.48971,1.67967 -2.38664,3.45345 -5.09536,4.76454 -4.01795,1.94481 -5.92401,2.43321 -7.31529,1.87444 z"
         id="path4840"
         inkscape:connector-curvature="0" />
      <path
         style="fill:#5bb327;stroke-width:0.26458332"
         d="m 125.61957,185.42274 c 0,-0.18643 2.12944,-5.70877 2.83699,-7.35723 l 0.76372,-1.77935 0.9657,0.65621 c 1.03158,0.70097 1.51482,1.84437 1.51753,3.59061 0.003,1.69638 -0.45085,2.49325 -1.85316,3.25648 -1.19722,0.65161 -4.23078,1.82271 -4.23078,1.63328 z"
         id="path4838"
         inkscape:connector-curvature="0" />
      <path
         style="fill:#5bb327;stroke-width:0.26458332"
         d="m 90.165404,182.5454 c 0,-0.44064 1.120256,-4.37504 2.162636,-7.59533 0.77392,-2.3909 1.27695,-3.44296 1.27695,-2.67068 0,0.19006 0.35719,0.79656 0.79375,1.34776 0.43656,0.55121 0.79375,1.07206 0.79375,1.15745 0,0.0854 -0.59543,1.0416 -1.32318,2.12491 -0.72775,1.08331 -1.80966,2.87155 -2.40423,3.97386 -1.089386,2.01965 -1.299676,2.28856 -1.299676,1.66203 z"
         id="path4836"
         inkscape:connector-curvature="0" />
      <path
         style="fill:#5bb327;stroke-width:0.26458332"
         d="m 145.96609,174.65718 c -1.55989,-1.66987 -2.61944,-4.58681 -2.61944,-7.21133 0,-0.87301 0.36979,-3.50054 0.82175,-5.83896 0.68131,-3.52509 0.79409,-4.62469 0.65991,-6.43448 -0.0957,-1.29035 -0.0609,-2.18281 0.0851,-2.18281 0.71678,0 3.42641,5.01865 4.14271,7.67292 0.90501,3.35359 0.41203,11.09354 -0.87411,13.72376 -0.61671,1.26121 -1.22173,1.33518 -2.21591,0.2709 z"
         id="path4834"
         inkscape:connector-curvature="0" />
      <path
         style="fill:#5bb327;stroke-width:0.26458332"
         d="m 79.155974,174.47829 c -0.96746,-0.62473 -1.76273,-3.8578 -2.09676,-8.5241 -0.1315,-1.83703 -0.0627,-3.19007 0.25543,-5.02709 0.43399,-2.50567 1.59364,-7.08732 1.8617,-7.35537 0.34217,-0.34218 0.40231,0.2369 0.1442,1.38862 -0.30147,1.34521 -0.17801,2.28629 0.9413,7.17573 0.33545,1.46531 0.75108,3.67337 0.92363,4.9068 0.28531,2.03948 0.26259,2.44483 -0.25081,4.47507 -0.56266,2.22502 -1.22089,3.32053 -1.77869,2.96034 z"
         id="path4832"
         inkscape:connector-curvature="0" />
      <path
         style="fill:#5bb327;stroke-width:0.26458332"
         d="m 108.31224,163.15381 c -67.922409,0.23004 -33.961204,0.11502 0,0 z"
         id="path4830"
         inkscape:connector-curvature="0" />
      <path
         style="fill:#5bb327;stroke-width:0.26458332"
         d="m 112.52269,163.8491 c -0.43656,-0.28363 -1.37508,-1.03822 -2.08561,-1.67688 l -1.29186,-1.16119 0.59793,-1.69557 c 0.66276,-1.87942 0.70869,-3.27469 0.18765,-5.70037 l -0.34874,-1.62356 1.33803,-0.65687 c 2.5921,-1.27252 4.75808,-3.67534 5.28523,-5.86313 l 0.18584,-0.77129 0.51309,0.84371 c 0.4306,0.70807 0.4716,1.02346 0.25504,1.96191 -0.63265,2.7416 -0.13616,4.49375 1.89897,6.70161 0.93945,1.01919 1.05541,1.27985 0.92549,2.08046 -0.49627,3.05816 -4.43001,8.0833 -6.32344,8.07786 -0.18913,-5.3e-4 -0.70105,-0.23305 -1.13762,-0.51669 z"
         id="path4828"
         inkscape:connector-curvature="0" />
      <path
         style="fill:#5bb327;stroke-width:0.26458332"
         d="m 105.91158,156.08152 c -0.48407,-1.15856 -0.48674,-1.44673 -0.0211,-2.28764 0.34103,-0.61589 0.3708,-0.55457 0.5519,1.13647 0.22339,2.08601 0.0327,2.49967 -0.53077,1.15117 z"
         id="path4826"
         inkscape:connector-curvature="0" />
      <path
         style="fill:#5bb327;stroke-width:0.26458332"
         d="m 108.04406,149.58131 c -0.0703,-0.11374 0.47331,-0.79237 1.208,-1.50806 1.70438,-1.6603 1.87754,-2.10919 1.27387,-3.30223 -0.31459,-0.62173 -0.39505,-1.0721 -0.23634,-1.32292 0.13234,-0.20916 0.24245,-0.69759 0.24468,-1.0854 0.003,-0.50443 0.35353,-1.01274 1.23192,-1.78594 0.67533,-0.59445 1.32712,-1.08082 1.44842,-1.08082 0.12129,0 0.40719,0.36095 0.63532,0.8021 0.39847,0.77056 0.37299,0.9136 -0.64793,3.63802 -0.86576,2.31033 -1.26264,3.01646 -2.14144,3.81004 -1.31313,1.18578 -2.84273,2.11638 -3.0165,1.83521 z"
         id="path4824"
         inkscape:connector-curvature="0" />
      <path
         style="fill:#5bb327;stroke-width:0.26458332"
         d="m 86.482134,146.74994 c 0.0127,-0.30823 0.0754,-0.37092 0.15985,-0.15986 0.0764,0.191 0.067,0.4192 -0.0209,0.50712 -0.0879,0.0879 -0.15046,-0.0684 -0.13897,-0.34726 z"
         id="path4822"
         inkscape:connector-curvature="0" />
      <path
         style="fill:#5bb327;stroke-width:0.26458332"
         d="m 88.398804,145.95163 c -0.38211,-0.99574 0.15504,-7.38305 0.82102,-9.76298 0.92909,-3.32016 1.29458,-4.41553 1.67739,-5.02708 0.317656,-0.50748 0.369796,-0.48589 1.271716,0.52653 1.35431,1.52023 2.57265,4.21068 2.70499,5.9734 0.0941,1.25383 -0.0127,1.71716 -0.71874,3.11571 -0.95024,1.88241 -4.328646,5.5979 -5.090046,5.5979 -0.27711,0 -0.57696,-0.19057 -0.66633,-0.42348 z"
         id="path4820"
         inkscape:connector-curvature="0" />
      <path
         style="fill:#5bb327;stroke-width:0.26458332"
         d="m 131.95522,142.97706 c -1.50236,-0.96073 -3.47645,-3.08396 -4.21704,-4.53563 -0.75461,-1.47918 -0.93555,-3.4269 -0.53753,-5.78658 0.328,-1.94465 1.21465,-3.47766 2.01136,-3.47766 0.20372,0 0.83874,0.93147 1.41115,2.06994 0.57241,1.13847 1.61553,2.89464 2.31806,3.9026 l 1.27731,1.83267 0.0891,3.14518 c 0.0684,2.41339 0.007,3.19734 -0.26459,3.36938 -0.55565,0.35221 -0.83149,0.28353 -2.08785,-0.5199 z"
         id="path864"
         inkscape:connector-curvature="0" />
      <path
         style="fill:#965bab;fill-opacity:1;stroke-width:0.26458332"
         d="m 117.86266,188.99837 c -1.93043,-0.37867 -4.53672,-1.30716 -6.44087,-2.29455 -2.07066,-1.07374 -4.0059,-3.04133 -5.28877,-5.37716 -0.47093,-0.85747 -0.93417,-1.56046 -1.02942,-1.56218 -0.0953,-0.002 -0.5332,0.63478 -0.97323,1.41446 -0.69124,1.22482 -3.37444,3.80704 -3.6596,3.52188 -0.0528,-0.0528 0.44136,-0.89749 1.09821,-1.87702 0.65684,-0.97953 1.19426,-1.90361 1.19426,-2.05352 0,-0.25362 -0.48876,-0.19846 -1.98438,0.22399 -0.98625,0.27857 -0.0413,-0.35425 1.2415,-0.83138 1.23099,-0.45787 1.24303,-0.4741 1.42355,-1.91889 0.23584,-1.88758 0.002,-7.95967 -0.31845,-8.28044 -0.2324,-0.2324 -1.60319,1.4322 -8.06847,9.79778 -1.18088,1.52797 -2.97738,3.93898 -3.992219,5.35781 -1.01484,1.41883 -1.90273,2.57969 -1.97308,2.57969 -0.1516,0 2.321079,-4.65065 4.360929,-8.20208 1.69348,-2.94838 2.09159,-3.47278 6.22208,-8.19586 l 3.12916,-3.5781 -0.16631,-1.5264 c -0.69404,-6.36993 -0.61713,-10.40738 0.22946,-12.04448 1.06734,-2.06403 -0.0337,-1.38028 -2.11933,1.31612 -0.63965,0.82696 -1.76702,2.55337 -2.50525,3.83646 -1.67538,2.91187 -2.33845,3.61497 -4.04483,4.28898 -1.51259,0.59747 -4.667319,1.43559 -4.821879,1.28103 -0.0549,-0.0549 0.55042,-0.30477 1.34514,-0.55529 0.794719,-0.25051 2.192259,-0.95641 3.105639,-1.56866 1.53575,-1.02942 1.76074,-1.31226 2.99033,-3.75901 1.58018,-3.14442 3.22166,-5.61705 4.37089,-6.58406 0.83485,-0.70249 4.98961,-2.80865 5.54053,-2.80865 0.16081,0 0.59121,0.29884 0.95646,0.66408 l 0.66409,0.66409 1.23177,-0.84748 c 2.94854,-2.02865 3.79814,-3.16003 4.97801,-6.62897 0.33537,-0.98605 0.99416,-2.32807 1.46398,-2.98227 0.79793,-1.1111 4.58461,-4.3632 5.08042,-4.3632 0.12288,0 -0.51568,0.7391 -1.41902,1.64244 -2.37945,2.37945 -3.28942,3.91166 -4.12452,6.94489 -0.89403,3.2472 -1.62731,4.14456 -4.6681,5.71256 -1.19623,0.61685 -2.19989,1.13937 -2.23034,1.16115 -0.0305,0.0218 0.12967,0.74816 0.35582,1.61418 0.54021,2.06868 0.373,5.0722 -0.39127,7.02822 -0.31839,0.81487 -1.39748,2.85943 -2.39796,4.54348 l -1.81907,3.06191 0.5315,2.2034 c 0.57275,2.37439 0.73094,5.41338 0.3867,7.42891 -0.27569,1.61413 0.005,1.63143 2.54973,0.15736 3.36201,-1.94719 6.95949,-5.20092 11.15308,-10.08736 l 1.53968,-1.79406 -0.33558,-1.11635 c -0.18457,-0.614 -0.3257,-2.00398 -0.31363,-3.08885 0.0278,-2.49743 1.07057,-4.84483 2.63334,-5.92783 1.10458,-0.76547 2.45699,-0.91275 2.94805,-0.32105 0.21239,0.25591 0.60842,0.3297 1.22901,0.22899 0.67066,-0.10883 1.05976,-0.0182 1.45429,0.33888 0.73254,0.66294 2.78316,4.11787 4.58189,7.71965 1.16247,2.32773 1.60366,2.97656 2.02399,2.97656 0.63477,0 2.51438,0.91679 2.7883,1.36002 0.10691,0.17297 0.0771,0.2388 -0.0675,0.14939 -0.14226,-0.0879 -1.006,-0.28021 -1.91942,-0.42732 -0.91342,-0.1471 -1.8258,-0.40442 -2.02751,-0.57183 -0.50743,-0.42113 -3.53189,-5.69803 -4.91766,-8.58005 -0.96706,-2.01121 -1.25214,-2.39369 -1.83458,-2.4613 -0.6611,-0.0767 -0.69545,-0.0154 -0.83152,1.48521 -0.16405,1.80914 -0.83919,3.46815 -2.36642,5.81503 -0.9037,1.3887 -1.03814,1.7607 -0.81276,2.24895 0.47744,1.03429 5.29645,6.44018 7.73232,8.674 2.58711,2.37251 3.18569,3.40597 3.18569,5.50016 0,1.8324 -1.27452,4.27154 -2.86787,5.48846 -2.25276,1.72054 -6.04213,3.30416 -9.08974,3.79871 -1.89709,0.30785 -2.26884,0.30659 -3.89922,-0.0132 z m 6.9551,-2.23923 c 5.72062,-1.44463 8.10798,-3.26927 8.10798,-6.19688 0,-2.16746 -0.76125,-3.37505 -3.175,-5.03657 -1.39675,-0.96146 -5.74152,-5.24705 -7.71642,-7.6113 l -0.94501,-1.13131 -0.42993,0.65616 c -0.8372,1.27772 -6.84668,7.28722 -8.71982,8.71984 -1.04515,0.79936 -2.87608,1.94104 -4.06872,2.53705 l -2.16844,1.08368 0.5732,0.98295 c 0.31525,0.54062 1.35058,1.77232 2.30073,2.73711 1.87257,1.90143 3.28699,2.60054 6.62232,3.27322 2.46257,0.49667 7.62676,0.48917 9.61911,-0.014 z m -19.37924,-23.19596 c 1.34495,-2.67497 1.79017,-3.89237 2.09866,-5.73852 0.27027,-1.61737 -0.0702,-4.69033 -0.64028,-5.77828 l -0.3606,-0.68823 -0.678,1.03857 c -1.39093,2.13063 -1.82748,4.10063 -1.97446,8.90993 -0.0975,3.19147 -0.052,4.43177 0.16277,4.43177 0.16402,0 0.79038,-0.97885 1.39191,-2.17524 z m 18.17361,-1.93277 c 1.3144,-1.91766 1.42154,-2.1849 1.30181,-3.24715 -0.1798,-1.59518 -0.49428,-1.84606 -1.63322,-1.30293 -1.09432,0.52184 -2.22147,2.1226 -2.43915,3.46407 -0.17661,1.08828 0.57464,3.43018 1.04957,3.27187 0.15879,-0.0529 0.93324,-1.03657 1.72099,-2.18586 z m -3.31551,-7.40207 c -2.4995,-2.13948 -2.87227,-5.3168 -1.07084,-9.12742 0.70902,-1.49981 0.90733,-2.21756 0.81213,-2.93933 -0.10485,-0.79497 0.0157,-1.11636 0.7198,-1.91823 1.01488,-1.15589 1.57586,-1.28776 0.755,-0.17748 -0.3667,0.49598 -0.60926,1.25879 -0.65768,2.06832 -0.0422,0.70539 -0.38273,2.46031 -0.75675,3.89982 -0.53628,2.06402 -0.64421,2.95515 -0.51058,4.21554 0.20279,1.91262 0.91682,3.68634 1.67445,4.15949 0.55607,0.34727 0.73467,0.74604 0.33413,0.74604 -0.11933,0 -0.70417,-0.41704 -1.29966,-0.92675 z m 10.06698,0.42737 c -1.08128,-0.50538 -1.68575,-1.30398 -2.02522,-2.67562 -0.09,-0.3638 -0.64253,-1.28895 -1.22776,-2.05589 -0.58523,-0.76694 -1.06405,-1.46155 -1.06405,-1.54359 0,-0.4204 2.1809,1.66024 2.87708,2.74481 1.44493,2.25105 1.67794,2.49718 2.85831,3.01932 1.11505,0.49324 1.22555,0.49655 2.4953,0.0748 1.60582,-0.53336 2.05338,-0.30541 0.60733,0.30934 -1.59956,0.68 -3.23905,0.726 -4.52099,0.12683 z m -6.89844,-1.27132 c -0.28736,-0.40857 -0.71874,-1.12711 -0.95862,-1.59678 -0.41315,-0.80892 -0.40805,-0.90633 0.0967,-1.84816 0.29308,-0.54683 0.53287,-1.32154 0.53287,-1.72158 0,-0.4234 0.31063,-1.075 0.74332,-1.55927 0.60375,-0.67571 1.00038,-0.85661 2.11237,-0.96346 1.8157,-0.17447 2.38877,0.23192 3.71919,2.63746 0.58638,1.06023 1.54117,2.39014 2.12175,2.95534 1,0.97352 1.12278,1.01984 2.33105,0.87951 0.7015,-0.0815 1.5731,-0.22308 1.93691,-0.31467 0.50598,-0.12739 0.44379,-0.0429 -0.26459,0.35933 -1.34264,0.76243 -2.7129,0.94204 -3.61763,0.47419 -0.75701,-0.39147 -2.57276,-2.23937 -4.33594,-4.41271 -0.90339,-1.11355 -0.97928,-1.15061 -1.84661,-0.90187 -0.54742,0.157 -1.023,0.51726 -1.20466,0.91254 -0.16508,0.35922 -0.56778,1.21252 -0.89489,1.89624 -0.57349,1.19871 -0.57953,1.28773 -0.1691,2.49226 0.50783,1.49039 0.40911,1.72289 -0.30216,0.71163 z m -15.62547,-5.87414 c 0.78792,-1.42235 0.83211,-1.61873 0.50272,-2.23421 -0.22323,-0.41711 -0.30618,-1.08455 -0.2172,-1.74787 l 0.14393,-1.07308 h -0.92292 c -1.27064,0 -1.01545,-0.59479 0.38365,-0.8942 1.67714,-0.3589 2.00632,-0.12102 1.84259,1.33158 -0.0863,0.76561 0.006,1.56501 0.24645,2.14117 0.36371,0.87048 0.34795,0.97168 -0.29613,1.90108 -0.61739,0.8909 -2.01214,2.13495 -2.39357,2.13495 -0.0844,0 0.23536,-0.70174 0.71048,-1.55942 z"
         id="path862"
         inkscape:connector-curvature="0" />
      <path
         style="fill:#52945b;stroke-width:0.26458332"
         d="m 112.6742,233.58017 c -2.11662,-5.34695 -1.2069,-11.58177 -2.27289,-17.26008 0.13902,-5.04248 -3.60893,-9.06056 -4.34074,-13.48229 -1.77576,-1.66645 -5.70387,-4.36546 -0.66477,-3.28404 2.07511,1.21511 2.70789,2.12706 3.81085,0.46883 3.0753,4.29218 10.32462,0.0333 11.9931,0.30285 -1.06886,1.20775 10.00687,-3.43967 4.07698,0.59774 -3.82245,2.89696 -3.71743,7.41896 -6.33607,11.41905 -1.44123,6.87753 -1.5145,13.98631 -2.75738,20.86212 -1.04708,0.52563 -2.37491,0.67756 -3.50908,0.37582 z"
         id="path4876"
         inkscape:connector-curvature="0" />
      <path
         style="fill:#52945b;stroke-width:0.26458332"
         d="m 98.413597,228.0578 c -7.431711,-0.94515 -9.340064,-9.22462 -15.741479,-11.43742 -7.551554,-1.95921 -14.971389,-4.79466 -22.550468,-6.39493 4.336089,-0.0524 8.219477,-2.73744 1.84865,-3.9029 -3.94526,-1.57448 -7.407297,-7.92338 -7.396272,-11.0528 3.207143,-4.69411 2.604266,-12.04608 -1.617227,-16.03627 -2.728713,-2.25093 -2.645333,-3.1151 0.807867,-1.56776 6.271101,-0.70021 -0.350179,-8.38768 2.088944,-12.47103 1.49383,-3.58069 -2.13105,-7.95855 2.962013,-7.67053 5.080277,-4.35971 9.618486,-9.30941 14.633142,-13.73761 -5.355627,8.38034 -11.220051,16.83975 -12.754409,26.92218 -2.687249,11.88588 2.774126,24.18682 11.570599,32.13772 5.866717,6.42316 12.334051,12.24627 19.48328,17.20899 2.747154,2.84142 7.622914,5.10015 8.765383,8.55127 -0.744653,0.0378 -1.433427,-0.26971 -2.100023,-0.54891 z"
         id="path4874"
         inkscape:connector-curvature="0" />
      <path
         style="fill:#52945b;stroke-width:0.26458332"
         d="m 128.20191,228.87181 c 2.94516,-4.24554 7.57979,-7.14274 11.51852,-10.46885 8.71687,-5.99966 16.01203,-13.85215 22.78922,-21.91138 6.264,-8.56974 8.08581,-20.03982 4.51272,-30.0783 -2.23436,-8.18144 -7.24805,-15.34892 -11.78704,-22.25846 4.82939,3.86976 9.16533,9.03554 14.0727,13.11005 1.74056,2.46101 5.46174,-0.28711 3.2922,3.93908 0.042,3.51358 0.89293,7.09815 0.79808,10.56083 -3.24612,4.12003 0.48171,8.59792 5.05662,5.18838 -4.05197,3.42661 -7.62552,8.9685 -5.92732,14.61592 0.31255,3.62521 4.35617,4.74522 0.55385,7.7266 -1.17968,5.42619 -6.55559,7.19892 -10.21506,9.6668 2.03939,1.38952 9.17137,1.35081 2.57608,2.26989 -7.35676,2.67387 -15.27515,3.92181 -22.37551,7.17519 -3.62298,4.30897 -7.2092,8.85215 -13.08657,10.14314 -0.42763,-0.26265 -1.32072,0.88346 -1.77849,0.32111 z"
         id="path4872"
         inkscape:connector-curvature="0" />
      <path
         style="fill:#52945b;stroke-width:0.26458332"
         d="m 138.14444,190.90978 c 0.32421,-4.4649 0.32793,-9.08372 2.80547,-12.98345 1.26107,-2.81192 1.62919,-7.11115 4.3527,-2.02058 3.74549,5.13378 -2.36292,11.43559 -5.58224,15.26861 -0.45487,0.27451 -1.75401,0.84904 -1.57593,-0.26458 z"
         id="path4870"
         inkscape:connector-curvature="0" />
      <path
         style="fill:#52945b;stroke-width:0.26458332"
         d="m 122.05297,179.76764 c -1.85761,-2.90037 -6.1782,-7.66713 -1.7943,-10.00542 2.25353,-2.6755 4.82568,4.96503 7.31206,6.02636 0.43665,0.94689 -3.7297,6.82498 -5.51776,3.97906 z"
         id="path4868"
         inkscape:connector-curvature="0" />
      <path
         style="fill:#52945b;stroke-width:0.26458332"
         d="m 99.62692,178.40074 c -2.550935,-1.42684 1.62175,-4.61667 2.55863,-5.13895 -0.003,1.75381 1.2258,8.63435 -2.55863,5.13895 z"
         id="path4866"
         inkscape:connector-curvature="0" />
      <path
         style="fill:#52945b;stroke-width:0.26458332"
         d="m 106.62353,176.86281 c 1.41739,-3.48978 -2.03971,-7.39369 -0.3498,-9.96989 1.88064,-5.03615 3.67422,-2.75961 5.00795,0.99807 2.10018,3.20457 0.0509,7.40389 -2.78195,8.67565 -0.666,-0.26135 -1.26171,0.73742 -1.8762,0.29617 z"
         id="path4864"
         inkscape:connector-curvature="0" />
      <path
         style="fill:#52945b;stroke-width:0.26458332"
         d="m 96.625975,173.03695 c -0.783771,-4.39828 0.258135,-7.07537 2.412986,-10.86218 2.722159,-4.6097 1.713129,1.41838 2.345749,3.86415 0.88771,2.44802 -3.548314,6.45394 -4.758735,6.99803 z"
         id="path4862"
         inkscape:connector-curvature="0" />
      <path
         style="fill:#52945b;stroke-width:0.26458332"
         d="m 129.037,171.71217 c -1.39946,-1.5427 -5.37854,-4.86414 -4.80382,-7.15063 2.06677,-2.45177 2.75369,-7.26269 4.23275,-1.56574 1.03887,1.94059 1.79915,9.05463 0.57107,8.71637 z"
         id="path4860"
         inkscape:connector-curvature="0" />
      <path
         style="fill:#52945b;stroke-width:0.26458332"
         d="m 117.29718,167.89064 c -0.14358,-2.88026 1.94696,-6.05221 1.95017,-1.69426 -1.01057,-0.0118 -1.44458,2.8498 -1.95017,1.69426 z"
         id="path4858"
         inkscape:connector-curvature="0" />
      <path
         style="fill:#52945b;stroke-width:0.26458332"
         d="m 122.17242,160.97073 c 0.5278,-3.83746 2.77909,-1.1133 -0.0763,1.23136 0.0254,-0.41045 0.0509,-0.82091 0.0763,-1.23136 z"
         id="path4856"
         inkscape:connector-curvature="0" />
      <path
         style="fill:#52945b;stroke-width:0.26458332"
         d="m 105.18317,159.96875 c 0.76236,-4.69888 0.59555,4.03739 0,0 z"
         id="path4854"
         inkscape:connector-curvature="0" />
      <path
         style="fill:#52945b;stroke-width:0.26458332"
         d="m 82.958169,158.31586 c -3.326893,-2.24962 -2.190953,-8.18034 -0.824377,-11.57296 0.748192,-2.03307 6.126917,-9.18323 5.526413,-3.40767 -0.940215,2.93986 -1.077418,6.26151 -1.725168,9.45448 -0.603819,1.74568 -0.665626,5.50005 -2.976868,5.52615 z"
         id="path4852"
         inkscape:connector-curvature="0" />
      <path
         style="fill:#52945b;stroke-width:0.26458332"
         d="m 139.84357,156.14972 c -2.13238,-0.83935 -2.55441,-3.10784 -2.21265,-4.53061 -2.26378,-0.87599 -1.79571,-5.55738 -1.30717,-8.43541 -1.23886,-7.56698 5.12469,0.021 6.37545,2.70966 0.58615,2.05439 2.92825,8.30386 -0.70493,10.31594 -0.66875,0.0129 -1.54124,0.4283 -2.1507,-0.0596 z"
         id="path4850"
         inkscape:connector-curvature="0" />
      <path
         style="fill:#52945b;stroke-width:0.26458332"
         d="m 102.20661,149.39335 c -3.993793,-2.13704 -5.00491,-7.9822 -3.12449,-11.6649 1.57262,-2.55722 2.87232,-5.05505 4.78223,-7.39978 1.80766,-0.11584 2.67236,3.75076 3.70006,5.01853 2.04525,2.82056 1.52504,5.64364 -2.23715,6.68759 1.50847,2.70846 2.31856,4.91852 -0.73001,7.02024 -0.75267,0.22434 -1.37598,0.83012 -2.39064,0.33832 z"
         id="path866"
         inkscape:connector-curvature="0" />
    </g>
  </g>
  <g
     inkscape:label="Layer 1"
     inkscape:groupmode="layer"
     id="layer1"
     transform="translate(-35.565692,-44.178469)">
    <ellipse
       style="fill:none;fill-opacity:1;stroke:none;stroke-width:0.48760155;stroke-miterlimit:4;stroke-dasharray:none;stroke-opacity:1"
       id="path849"
       cx="-6.1042938"
       cy="-191.81149"
       transform="matrix(-0.66698476,0.74507136,-0.61824041,-0.78598905,0,0)"
       rx="78.994034"
       ry="114.56644" />
    <flowRoot
       xml:space="preserve"
       id="flowRoot1094"
       style="font-style:normal;font-variant:normal;font-weight:normal;font-stretch:normal;font-size:60px;line-height:1.25;font-family:'Palatino Linotype';-inkscape-font-specification:'Palatino Linotype';letter-spacing:0px;word-spacing:0px;fill:#000000;fill-opacity:1;stroke:none"
       transform="matrix(0.26458333,0,0,0.26458333,15.326628,58.483448)"><flowRegion
         id="flowRegion1096"><rect
           id="rect1098"
           width="27.142857"
           height="75.714287"
           x="338.57144"
           y="649.84753" /></flowRegion><flowPara
         id="flowPara1100" /></flowRoot>    <flowRoot
       xml:space="preserve"
       id="flowRoot1112"
       style="font-style:normal;font-variant:normal;font-weight:normal;font-stretch:normal;font-size:60px;line-height:1.25;font-family:'Palatino Linotype';-inkscape-font-specification:'Palatino Linotype';letter-spacing:0px;word-spacing:0px;fill:#000000;fill-opacity:1;stroke:none"><flowRegion
         id="flowRegion1114"><rect
           id="rect1116"
           width="1066.317"
           height="892.36877"
           x="-292.74222"
           y="-137.41" /></flowRegion><flowPara
         id="flowPara1118" /></flowRoot>    <ellipse
       style="opacity:1;fill:none;fill-opacity:0.83402489;stroke:none;stroke-width:0.28498083;stroke-opacity:1"
       id="path94"
       ry="71.270576"
       rx="89.044006"
       cy="-119.22775"
       cx="145.71408"
       transform="rotate(90)" />
    <text
       xml:space="preserve"
       style="font-style:normal;font-variant:normal;font-weight:normal;font-stretch:normal;font-size:19.75555611px;line-height:1.25;font-family:'Palatino Linotype';-inkscape-font-specification:'Palatino Linotype, Normal';font-variant-ligatures:normal;font-variant-caps:small-caps;font-variant-numeric:normal;font-feature-settings:normal;text-align:center;letter-spacing:0px;word-spacing:0px;writing-mode:lr-tb;text-anchor:middle;fill:#000000;fill-opacity:1;stroke:none;stroke-width:0.26458332"
       id="text98"><textPath
         xlink:href="#path94"
         startOffset="50%"
         id="textPath100"><tspan
   style="font-style:normal;font-variant:normal;font-weight:normal;font-stretch:normal;font-size:19.75555611px;font-family:'Palatino Linotype';-inkscape-font-specification:'Palatino Linotype, Normal';font-variant-ligatures:normal;font-variant-caps:small-caps;font-variant-numeric:normal;font-feature-settings:normal;text-align:center;writing-mode:lr-tb;text-anchor:middle;stroke-width:0.26458332"
   id="tspan96">Northern Universities Dance Competition</tspan></textPath></text>
    <text
       xml:space="preserve"
       style="font-style:normal;font-variant:normal;font-weight:normal;font-stretch:normal;font-size:10.58333302px;line-height:1.25;font-family:'Palatino Linotype';-inkscape-font-specification:'Palatino Linotype, Normal';font-variant-ligatures:normal;font-variant-caps:small-caps;font-variant-numeric:normal;font-feature-settings:normal;text-align:center;letter-spacing:0px;word-spacing:0px;writing-mode:lr-tb;text-anchor:middle;fill:#000000;fill-opacity:1;stroke:none;stroke-width:0.26458332"
       x="121.09863"
       y="219.61412"
       id="text910"><tspan
         sodipodi:role="line"
         id="tspan908"
         x="121.09863"
         y="219.61412"
         style="font-style:normal;font-variant:normal;font-weight:normal;font-stretch:normal;font-size:10.58333302px;font-family:'Palatino Linotype';-inkscape-font-specification:'Palatino Linotype, Normal';font-variant-ligatures:normal;font-variant-caps:small-caps;font-variant-numeric:normal;font-feature-settings:normal;text-align:center;writing-mode:lr-tb;text-anchor:middle;stroke-width:0.26458332">Edinburgh</tspan><tspan
         sodipodi:role="line"
         x="121.09863"
         y="232.84329"
         style="font-style:normal;font-variant:normal;font-weight:normal;font-stretch:normal;font-size:10.58333302px;font-family:'Palatino Linotype';-inkscape-font-specification:'Palatino Linotype, Normal';font-variant-ligatures:normal;font-variant-caps:small-caps;font-variant-numeric:normal;font-feature-settings:normal;text-align:center;writing-mode:lr-tb;text-anchor:middle;stroke-width:0.26458332"
         id="tspan912">2019</tspan></text>
  </g>
</svg>
